<svg version="1.1" id="OBJECTS" xmlns="http://www.w3.org/2000/svg" xmlns:xlink="http://www.w3.org/1999/xlink" x="0px" y="0px"
	 width="500px" height="500px" viewBox="0 0 500 500" enable-background="new 0 0 500 500" xml:space="preserve">
<g>
	<path d="M212.6,332.3l-28.9,18.6c11,7.4,23.1,12.9,35.9,16.4L212.6,332.3z" fill="#e3e3e3"/>
	<path d="M317,148.8c-11.2-7.4-23.6-12.9-36.6-16.3h0l7.1,35.2L317,148.8z" fill="#e3e3e3"/>
	<path d="M367.2,280.4l-34.9,7l18.6,28.9C358.2,305.4,363.7,293.2,367.2,280.4z" fill="#e3e3e3"/>
	<path d="M183.7,149.2l28.9,18.6l7-34.9C206.8,136.3,194.7,141.8,183.7,149.2z" fill="#e3e3e3"/>
	<path d="M132.8,219.6l34.9-7l-18.6-28.9C141.8,194.7,136.3,206.8,132.8,219.6z" fill="#e3e3e3"/>
	<path d="M280.4,367.2c12.8-3.5,24.9-9,35.9-16.4l-28.9-18.6L280.4,367.2z" fill="#e3e3e3"/>
	<path d="M375.5,129.5l-4.9-4.9l-89,57.2L253.5,42.2h-7l-28.1,139.5l-89-57.2l-4.9,4.9l57.2,89L42.2,246.5v7l139.5,28.1l-57.2,89
		l4.9,4.9l89-57.2l28.1,139.5h7l28.1-139.5l89,57.2l4.9-4.9l-57.2-89l139.5-28.1v-7l-139.5-28L375.5,129.5z M281.9,190l78.7-50.6
		L257.4,242.6L281.9,190z M61,250h180.5l-19.1,8.9l-35.4,16.5L61,250z M231.7,281L218.1,310l-78.7,50.6l103.2-103.2L231.7,281z
		 M190,218.1l-50.6-78.7l0,0l103.2,103.2L190,218.1z M238.4,216.6l-13.7-29.5v0L250,61v180.5L238.4,216.6z M275.4,313L250,439V258.5
		L275.4,313L275.4,313z M360.6,360.6L257.4,257.4l52.7,24.5L360.6,360.6z M439,250H258.5l54.5-25.3L439,250z" fill="#e3e3e3"/>
	<path d="M132.8,280.4c3.5,12.8,9,24.9,16.4,35.9l18.6-28.9L132.8,280.4z" fill="#e3e3e3"/>
	<path d="M367.5,219.6c-3.4-13-8.9-25.4-16.3-36.6l-19,29.5L367.5,219.6z" fill="#e3e3e3"/>
</g>
</svg>
